<svg width="95" height="62" viewBox="0 0 95 62" fill="none" xmlns="http://www.w3.org/2000/svg">
<g clip-path="url(#clip0)">
<path d="M8.65703 9.13667C10.1397 9.07417 13.7563 8.94815 15.5952 8.50659C15.5354 9.3262 15.4168 11.8465 15.4168 16.6346V18.7769C17.0769 17.3272 18.4415 16.5711 20.1016 16.5711C20.9418 16.5365 21.7761 16.733 22.524 17.1415C23.2718 17.55 23.9077 18.1567 24.3703 18.9029C25.1919 20.4594 25.6016 22.2231 25.5561 24.0071C25.5561 29.8658 22.9474 33.2058 17.6693 33.2058C16.2291 33.1721 14.8129 32.8065 13.5187 32.1341C12.8072 32.3862 11.8586 32.8902 10.91 33.2058L10.6131 33.0163C10.6728 31.3145 10.6728 28.1016 10.6728 23.7541V15.689C10.6728 13.6728 10.6131 12.2866 10.5543 11.0899C10.4945 10.2703 10.3171 10.1443 8.53798 10.1443L8.65703 9.13667ZM17.6688 32.0081C19.6851 32.0081 20.6337 29.4243 20.6337 24.6362C20.6987 23.0348 20.4146 21.4391 19.8037 19.9736C19.6278 19.5978 19.3574 19.2812 19.0225 19.0587C18.6877 18.8363 18.3014 18.7168 17.9065 18.7134C17.4621 18.7369 17.0298 18.8755 16.6473 19.1171C16.2648 19.3587 15.9437 19.696 15.7119 20.0996C15.4159 20.5411 15.2973 20.9192 15.2973 25.8963C15.2973 29.9924 15.4756 30.1184 15.7128 30.6224C15.8755 31.0317 16.1476 31.3812 16.4955 31.6275C16.8434 31.8739 17.2517 32.0062 17.6698 32.0081H17.6688ZM35.9296 32.8277C34.6841 32.8277 33.439 32.7007 31.482 32.7007C29.407 32.7007 28.3991 32.8277 27.3912 32.8277V31.7561C29.0512 31.6926 29.2884 31.378 29.3481 30.6844C29.407 29.9283 29.4667 28.7317 29.4667 26.7779V22.7454C29.4667 21.1072 29.4667 19.7845 29.407 19.217C29.3472 18.6494 29.11 18.4609 27.5685 18.5244V17.4532C29.6446 17.2647 32.1347 17.2012 34.151 16.7607C34.0912 17.5803 34.0324 19.0925 34.0324 22.5574V26.9055C34.0324 28.9217 34.0921 29.8038 34.151 30.686C34.2098 31.5681 34.4479 31.6941 35.9296 31.8826V32.8277ZM31.4854 9.45222C33.0278 9.45222 33.9171 10.3978 33.9171 12.0986C33.9171 13.5483 32.9088 14.5564 31.3668 14.5564C31.0592 14.5719 30.752 14.519 30.4648 14.401C30.1776 14.2829 29.9168 14.1024 29.6991 13.871C29.4814 13.6396 29.3116 13.3624 29.2006 13.0572C29.0896 12.7519 29.0399 12.4254 29.0545 12.0986C29.0348 11.7508 29.0837 11.4026 29.1982 11.0762C29.3126 10.7497 29.49 10.4524 29.7191 10.2031C29.9481 9.95393 30.2236 9.75838 30.528 9.62905C30.8323 9.49973 31.1588 9.43949 31.4863 9.45222H31.4854ZM37.4744 9.13667C39.6407 9.09711 41.8013 8.8865 43.9383 8.50659C43.8579 11.1099 43.8181 13.7143 43.8187 16.3196V24.1956C44.9457 23.8801 47.376 20.7297 48.3246 18.9029C48.503 18.5249 48.503 18.3354 48.0287 18.3354L46.7243 18.2093V17.1387C48.9189 17.2022 51.1719 17.0752 53.4253 16.9492V18.0208C51.7653 18.2103 51.1121 18.3364 50.4595 18.9029C49.4389 19.8769 48.4877 20.9299 47.6137 22.0533C48.3251 23.629 51.2909 29.4253 52.4169 31C52.5805 31.2526 52.8034 31.4553 53.0635 31.5879C53.3236 31.7205 53.6119 31.7785 53.8996 31.7561L54.7287 31.8196L54.6699 32.8902C52.47 32.841 50.2696 32.9674 48.0875 33.2683C47.376 31.5041 45.2417 27.2195 44.5895 25.8963C44.2338 25.2037 44.0554 24.9517 43.8183 25.0142C43.8183 27.5981 43.7594 28.8582 43.878 30.6844C43.9378 31.5041 44.1152 31.7561 45.7164 31.8186V32.8902C44.5895 32.8902 43.4032 32.7642 41.4477 32.7642C39.1345 32.7642 38.1275 32.8902 37.2373 32.8902V31.8186C38.7788 31.7561 39.0159 31.4416 39.0757 30.8105C39.1345 30.0544 39.1933 28.4162 39.1933 25.1402V17.0127C39.1933 14.4289 39.1933 12.4761 39.1345 10.8384C39.1345 10.4603 38.8973 10.2712 38.423 10.2708H37.4147L37.4744 9.13667ZM23.185 48.3892C22.1766 51.7917 20.2201 53.4299 16.9583 53.4299C14.1708 53.4299 12.3922 52.6103 11.1476 50.846C10.199 49.5234 9.72469 47.5696 9.72469 45.3648C9.72469 40.5127 12.5122 36.7957 17.6114 36.7957C20.6944 36.7957 22.9479 38.3079 22.9479 40.7657C22.9479 42.4665 21.6435 43.159 20.5763 43.159C20.1636 43.1522 19.7579 43.0446 19.3906 42.8445C19.2115 42.7327 19.0729 42.5601 18.9972 42.3545C18.9215 42.1489 18.9131 41.9222 18.9732 41.7109C19.0618 41.2747 19.1214 40.8323 19.1515 40.3872C19.1515 38.8125 18.6174 38.0564 17.4914 38.0564C15.653 38.0564 14.7044 40.8923 14.7044 44.7988C14.7044 46.3735 14.8828 48.1377 15.4159 49.2083C16.0088 50.658 16.9574 51.4766 18.3808 51.4766C20.1594 51.4766 21.2868 50.406 22.1169 47.9482L23.185 48.3892ZM26.5621 43.7906C26.5896 42.3176 26.53 40.8442 26.3837 39.3791C26.38 39.2865 26.3581 39.1958 26.3194 39.1128C26.2808 39.0298 26.2262 38.9562 26.1592 38.897C26.0921 38.8377 26.0142 38.7941 25.9304 38.7687C25.8465 38.7434 25.7586 38.737 25.6723 38.75H24.6051V37.6783C26.3837 37.6148 28.8155 37.4888 30.5339 36.9222L30.7122 37.0483C30.8308 37.8044 30.9494 39.6321 31.0092 40.7662H31.1268C31.899 38.5605 32.9652 36.7962 35.1584 36.7962C35.4604 36.8013 35.7582 36.8715 36.034 37.0023C36.3097 37.1332 36.5576 37.3222 36.7628 37.5577C36.9679 37.7933 37.1259 38.0706 37.2274 38.3729C37.3288 38.6752 37.3716 38.9962 37.353 39.3166C37.353 41.3963 35.8703 42.0264 35.277 42.0264C35.0422 42.0645 34.8021 42.0242 34.5897 41.9112C34.3773 41.7981 34.2032 41.6179 34.0912 41.3953C33.7952 40.7027 33.6169 40.3247 33.025 40.3247C32.3723 40.3247 32.0166 40.9548 31.602 41.9629C31.3811 42.6952 31.2806 43.4626 31.3051 44.2312C31.3051 47.8232 31.3051 49.8389 31.3649 50.721C31.4247 51.6031 31.7197 51.8542 34.0917 51.9177L34.0329 52.9893C32.3728 52.9258 30.8896 52.8623 29.1708 52.8623C27.3921 52.8623 26.0878 52.9258 24.6046 52.9893L24.782 51.9177C26.2049 51.8542 26.5606 51.6656 26.5606 51.0356C26.6204 50.1535 26.6792 48.4517 26.6792 46.499V43.7896H26.5621V43.7906ZM46.6636 40.8923C46.6636 39.001 46.0698 37.9929 44.884 37.9929C43.5209 37.9929 42.8692 38.8125 42.8692 40.3247C42.8761 40.7267 42.9154 41.1274 42.9868 41.5223C43.0246 41.6995 43.0109 41.8846 42.9475 42.0532C42.8842 42.2219 42.7742 42.3662 42.632 42.467C42.1378 42.8138 41.5637 43.0101 40.972 43.0345C39.845 43.0345 38.8959 42.466 38.8959 41.0808C38.8959 39.0645 41.6834 36.7962 45.5969 36.7962C48.798 36.7962 50.2209 38.1824 50.755 39.0645C51.0625 39.5721 51.2271 40.1625 51.2293 40.7662V50.0274C51.2293 51.0991 51.5262 51.3511 51.8819 51.3511C52.3562 51.3511 52.8894 50.5315 53.1265 49.1453L54.1349 49.6494C53.6008 52.3592 52.0588 53.4934 49.9245 53.4934C48.0861 53.4934 47.0786 52.6738 46.7812 51.0356C45.3583 52.5478 43.8761 53.4934 42.3346 53.4934C39.8441 53.4934 38.184 51.7292 38.184 48.8298C38.184 47.0656 38.8954 46.0574 40.141 45.4908C42.1558 44.5452 45.1805 43.6006 46.6627 42.4665V40.8913L46.6636 40.8923ZM42.9299 47.8852C42.9299 49.2713 43.464 50.7835 44.7683 50.7835C45.7169 50.7835 46.1315 50.1535 46.4284 49.5234C46.5648 49.033 46.6248 48.5222 46.6058 48.0112V43.7266C45.9531 44.1682 44.9457 44.6722 44.174 45.1763C43.463 45.6809 42.9299 46.31 42.9299 47.8852ZM54.6704 37.3638L56.5676 37.4263V36.4182C56.6274 33.7718 57.2202 31.8181 58.5246 30.4324C59.0851 29.8183 59.7587 29.3335 60.5034 29.0083C61.248 28.6831 62.0477 28.5244 62.8526 28.5422C65.2844 28.5422 66.5887 29.8023 66.5887 31.4405C66.5887 32.6382 65.6401 33.4568 64.3344 33.4568C64.1761 33.467 64.0177 33.4413 63.8695 33.3816C63.7213 33.3218 63.5868 33.2293 63.4747 33.1102C63.3626 32.9911 63.2756 32.8481 63.2194 32.6906C63.1632 32.5331 63.139 32.3648 63.1486 32.1966C63.1486 30.874 62.9712 29.8033 62.0823 29.8033C61.4885 29.8033 61.1337 30.3699 61.0142 31.4416C60.8966 32.4497 61.074 34.3399 61.1926 37.3003H64.0986L63.9203 38.5605L61.1926 38.75C61.1328 39.9466 61.1328 42.0264 61.1328 44.4827C61.1328 46.8145 61.1328 48.8933 61.1926 50.5315C61.2523 51.3511 61.3709 51.6656 62.0226 51.7292C62.554 51.7996 63.0884 51.8413 63.6238 51.8542L63.5034 52.9258C62.3774 52.9258 60.5982 52.7998 59.0568 52.7998C57.4555 52.7998 55.5578 52.9258 54.4906 52.9258L54.5504 51.8542C56.0919 51.7917 56.329 51.6021 56.3888 50.9095C56.5064 49.8379 56.5064 48.1997 56.5064 45.9949V38.6865L54.4916 38.5605L54.669 37.3628L54.6704 37.3638Z" fill="#FEC63E"/>
<path d="M75.0005 37.3614L74.881 38.5576L71.2635 38.8096C71.2635 40.1333 71.2037 42.086 71.2037 44.7329C71.2037 47.5052 71.2037 49.396 71.3232 50.5296C71.382 51.3492 71.678 51.7273 72.2718 51.7273C73.5164 51.7273 74.2872 50.2776 74.5841 48.9549H75.0584L75.4748 50.4031C74.7634 52.2308 72.9833 53.4915 70.3746 53.4915C68.9517 53.4915 67.7066 52.9874 67.1138 52.2313C66.6737 51.5722 66.4639 50.7705 66.5204 49.9645C66.5204 47.3787 66.639 41.5819 66.639 38.8096L64.7418 38.6201L64.8603 37.4234H66.639C66.6987 36.2258 66.6987 34.8391 66.6987 33.5789C68.2569 33.2038 69.7552 32.5886 71.1458 31.7527L71.5016 31.8162C71.3979 33.6836 71.3384 35.5528 71.3232 37.4239H75.0005V37.3604V37.3614Z" fill="#FEC63E"/>
<path d="M90.1181 4.99982V57.0002H4.74306V4.99982H90.1181ZM94.8611 0H0V62H94.8611V0Z" fill="#FEC63E"/>
</g>
<defs>
<clipPath id="clip0">
<rect width="94.8611" height="62" fill="white"/>
</clipPath>
</defs>
</svg>
