<svg width="236" height="220" viewBox="0 0 236 220" fill="none" xmlns="http://www.w3.org/2000/svg">
<g clip-path="url(#clip0)">
<path d="M85.4528 212.665C84.5959 211.866 83.4067 211.406 82.1939 211.406C80.9817 211.406 79.7924 211.866 78.9356 212.665C78.0782 213.464 77.5846 214.573 77.5846 215.703C77.5846 216.833 78.0778 217.942 78.9356 218.741C79.7924 219.54 80.9817 220 82.1939 220C83.4067 220 84.5959 219.54 85.4528 218.741C86.3101 217.942 86.8033 216.833 86.8033 215.703C86.8033 214.573 86.3106 213.464 85.4528 212.665Z" fill="#FEC63E"/>
<path d="M163.597 178.393C161.052 178.393 158.987 180.317 158.987 182.69C158.987 190.686 152.009 197.191 143.432 197.191C140.887 197.191 138.823 199.115 138.823 201.488C138.823 203.861 140.887 205.785 143.432 205.785C157.093 205.785 168.206 195.425 168.206 182.69C168.206 180.317 166.142 178.393 163.597 178.393Z" fill="#FEC63E"/>
<path d="M197.281 0C175.932 0 158.562 16.1915 158.562 36.0938V87.6562C158.562 106.104 173.489 121.353 192.672 123.485V161.133H176.081C168.823 151.607 156.893 145.38 143.432 145.38C139.908 145.38 136.489 145.809 133.23 146.61L117.856 110H136.601C137.684 110 138.636 110.645 138.971 111.605C139.313 112.584 138.896 113.331 138.617 113.688C138.339 114.046 137.706 114.646 136.601 114.646H131.889C129.344 114.646 127.28 116.569 127.28 118.943C127.28 121.316 129.344 123.24 131.889 123.24H136.601C140.394 123.24 143.847 121.599 146.076 118.739C148.305 115.879 148.91 112.31 147.738 108.948C146.165 104.437 141.69 101.406 136.601 101.406H111.101C109.577 101.406 108.153 102.108 107.294 103.281C106.435 104.454 106.253 105.947 106.809 107.269L115.466 127.883H77.1586L73.6896 120.486L72.3792 117.373C71.6868 115.728 69.9846 114.646 68.0883 114.646H48.0458C44.1712 114.646 40.5542 116.427 38.3717 119.412C36.1887 122.396 35.7305 126.186 37.146 129.549C38.9179 133.757 43.1963 136.477 48.0458 136.477H63.3222L55.908 148.448C51.0355 146.476 45.6642 145.38 40.0227 145.38C17.9544 145.38 0 162.118 0 182.69C0 194.227 5.64694 204.557 14.4992 211.406H4.60938C2.06408 211.406 0 213.33 0 215.703C0 218.076 2.06408 220 4.60938 220H40.0232C60.5331 220 77.4864 205.543 79.7795 186.987H97.8308C99.386 186.987 100.837 186.256 101.688 185.043C102.54 183.829 102.677 182.298 102.054 180.969L81.1891 136.477H119.075L124.65 149.753C112.023 156.035 103.409 168.442 103.409 182.69C103.409 194.227 109.056 204.557 117.908 211.406H101.554C99.0085 211.406 96.9444 213.33 96.9444 215.703C96.9444 218.076 99.0085 220 101.554 220H143.432C165.501 220 183.455 203.263 183.455 182.69C183.455 178.134 182.573 173.766 180.962 169.727H214.028C216.573 169.727 218.637 167.803 218.637 165.43C218.637 163.057 216.573 161.133 214.028 161.133H201.891V123.486C221.074 121.354 236 106.104 236 87.6567V36.0938C236 16.1915 218.63 0 197.281 0ZM48.0458 127.884C47.0142 127.884 46.1044 127.305 45.7273 126.41C45.3092 125.416 45.7112 124.632 45.9882 124.254C46.2652 123.875 46.9004 123.24 48.0458 123.24H64.9456L66.9005 127.884H48.0458ZM40.0232 211.406C23.0372 211.406 9.21875 198.524 9.21875 182.69C9.21875 166.856 23.0372 153.974 40.0232 153.974C43.9863 153.974 47.7729 154.683 51.2562 155.96L36.0315 180.542C35.2082 181.871 35.2082 183.509 36.0315 184.839C36.8547 186.168 38.3767 186.987 40.0232 186.987H54.8815C52.9124 192.891 46.9963 197.191 40.0232 197.191C37.4779 197.191 35.4138 199.115 35.4138 201.488C35.4138 203.861 37.4779 205.785 40.0232 205.785C52.1085 205.785 62.1938 197.675 64.3612 186.987H70.482C68.2506 200.79 55.4425 211.406 40.0232 211.406ZM48.0066 178.393L59.2337 160.267C65.1563 164.685 69.301 171.09 70.482 178.393H48.0066ZM90.7849 178.393H79.7795C78.4852 167.921 72.5234 158.754 63.8855 152.755L72.3511 139.086L90.7849 178.393ZM143.432 211.406C126.446 211.406 112.627 198.524 112.627 182.69C112.627 172.08 118.838 162.802 128.042 157.831L139.14 184.257C139.852 185.952 141.591 186.988 143.433 186.988C143.992 186.988 144.56 186.893 145.112 186.691C147.483 185.826 148.652 183.334 147.724 181.124L136.623 154.69C138.815 154.226 141.092 153.974 143.432 153.974C160.418 153.974 174.237 166.856 174.237 182.69C174.237 198.524 160.418 211.406 143.432 211.406ZM226.781 87.6562C226.781 101.358 215.975 112.749 201.891 114.819V96.9504L214.173 84.7262C215.913 82.9941 215.818 80.2751 213.96 78.653C212.103 77.0309 209.185 77.1199 207.444 78.8515L201.891 84.3786V70.5547L214.173 58.3305C215.913 56.5984 215.818 53.8794 213.96 52.2569C212.103 50.6348 209.185 50.7238 207.444 52.4554L201.891 57.9833V50.4883C201.891 48.1151 199.827 46.1914 197.281 46.1914C194.736 46.1914 192.672 48.1151 192.672 50.4883V69.8363L187.927 65.1136C186.186 63.3815 183.269 63.293 181.411 64.915C179.553 66.5371 179.458 69.2566 181.198 70.9882L192.672 82.4076V114.818C178.587 112.749 167.781 101.358 167.781 87.6558V36.0938C167.781 20.9301 181.015 8.59375 197.281 8.59375C213.548 8.59375 226.781 20.9301 226.781 36.0938V87.6562Z" fill="#FEC63E"/>
<path d="M231.391 161.133H231.33C228.785 161.133 226.721 163.057 226.721 165.43C226.721 167.803 228.785 169.727 231.33 169.727H231.391C233.936 169.727 236 167.803 236 165.43C236 163.057 233.936 161.133 231.391 161.133Z" fill="#FEC63E"/>
<path d="M110.087 59.5835H102.439C104.254 56.1469 105.23 52.3351 105.23 48.4396C105.23 34.5241 93.0859 23.2036 78.1589 23.2036C67.0429 23.2036 57.312 29.523 53.1899 38.6878C50.5459 37.5023 47.6236 36.8659 44.634 36.8659C33.7475 36.8655 24.8906 45.1219 24.8906 55.2703C24.8906 59.3734 26.3117 63.2582 28.9994 66.5053C29.8724 67.5594 31.2198 68.1772 32.6487 68.1772H110.087C112.632 68.1772 114.696 66.2535 114.696 63.8804C114.696 61.5072 112.632 59.5835 110.087 59.5835ZM91.4136 59.5831H35.1778C34.4749 58.2519 34.1094 56.7892 34.1094 55.2703C34.1094 49.8605 38.8308 45.4592 44.634 45.4592C47.6084 45.4592 50.4588 46.6422 52.4538 48.7051C53.6619 49.9542 55.5397 50.4316 57.2609 49.9263C58.9816 49.4214 60.2284 48.0275 60.4515 46.3586C61.5596 38.057 69.172 31.7969 78.1584 31.7969C88.0022 31.7969 96.011 39.2627 96.011 48.4391C96.011 52.5598 94.353 56.5404 91.4136 59.5831Z" fill="#FEC63E"/>
</g>
<defs>
<clipPath id="clip0">
<rect width="236" height="220" fill="white"/>
</clipPath>
</defs>
</svg>
