<svg width="255" height="165" viewBox="0 0 255 165" fill="none" xmlns="http://www.w3.org/2000/svg">
<path d="M201.512 57.7502C195.567 57.7623 189.666 58.7746 184.055 60.7449L166.667 20.6251H191.233C192.869 20.6251 194.438 21.277 195.594 22.4373C196.751 23.5977 197.401 25.1715 197.401 26.8126C197.401 28.4536 196.751 30.0274 195.594 31.1878C194.438 32.3482 192.869 33.0001 191.233 33.0001H180.955V41.2501H191.233C195.05 41.2501 198.71 39.729 201.409 37.0215C204.107 34.3139 205.624 30.6417 205.624 26.8126C205.624 22.9835 204.107 19.3113 201.409 16.6037C198.71 13.8961 195.05 12.375 191.233 12.375H160.397C159.714 12.3747 159.042 12.545 158.441 12.8706C157.84 13.1962 157.33 13.6667 156.956 14.2399C156.581 14.813 156.355 15.4705 156.298 16.1532C156.241 16.8359 156.354 17.5221 156.627 18.1501L164.85 37.1251H95.9697L91.1469 22.0069L104.978 17.3787C106.98 16.709 108.679 15.3465 109.772 13.535C110.864 11.7235 111.279 9.5811 110.941 7.4911C110.603 5.4011 109.535 3.49982 107.928 2.12736C106.321 0.754912 104.28 0.000826344 102.17 6.68936e-09H71.646C69.6829 -7.2168e-05 67.7639 0.583902 66.1317 1.67807C64.4994 2.77224 63.2272 4.32746 62.476 6.14705C61.7247 7.96665 61.5282 9.96888 61.9112 11.9005C62.2942 13.8322 63.2395 15.6066 64.6276 16.9992L66.9671 19.3463C69.0601 21.4753 71.6449 23.0524 74.4918 23.9376C77.3387 24.8227 80.3595 24.9885 83.2857 24.4201L87.7014 38.2636C87.3705 38.5671 87.0926 38.924 86.8791 39.3196L74.7995 62.2134C64.9587 57.9117 54.055 56.6823 43.508 58.6854C32.961 60.6886 23.2595 65.8314 15.6669 73.4443C8.0742 81.0571 2.94215 90.7872 0.938969 101.368C-1.06421 111.948 0.154315 122.888 4.43587 132.764C8.71742 142.64 15.8636 150.993 24.9439 156.737C34.0242 162.481 44.6178 165.348 55.3454 164.966C66.0729 164.584 76.4373 160.971 85.0889 154.596C93.7405 148.221 100.278 139.38 103.851 129.224C104.933 132.295 106.898 134.974 109.499 136.922C112.099 138.87 115.218 140 118.46 140.168L121.547 149.462C121.815 150.267 122.323 150.971 123.004 151.476C123.685 151.981 124.504 152.263 125.351 152.283L139.741 152.625L139.93 144.375L128.418 144.103L126.543 138.468C128.769 137.387 130.72 135.81 132.247 133.856C133.773 131.903 134.835 129.626 135.35 127.199C135.866 124.771 135.822 122.258 135.222 119.85C134.622 117.442 133.481 115.204 131.888 113.306L173.065 56.1002L176.506 64.0367C164.999 70.1846 156.131 80.3439 151.575 92.599C147.018 104.854 147.088 118.358 151.771 130.565C156.454 142.772 165.427 152.838 176.997 158.866C188.568 164.893 201.936 166.466 214.582 163.287C227.228 160.107 238.278 152.396 245.648 141.607C253.019 130.818 256.2 117.696 254.592 104.716C252.985 91.736 246.7 79.7944 236.922 71.1429C227.144 62.4914 214.549 57.7277 201.512 57.7502ZM83.1829 15.9762C81.3899 16.5638 79.4701 16.6437 77.6347 16.207C75.7994 15.7703 74.1198 14.834 72.7808 13.5012L70.4413 11.154C70.207 10.9146 70.0483 10.6112 69.9848 10.2817C69.9214 9.95225 69.9561 9.61135 70.0846 9.30156C70.2131 8.99177 70.4297 8.72683 70.7074 8.53982C70.9851 8.35281 71.3115 8.25201 71.646 8.25002H102.17C102.329 8.24931 102.482 8.30552 102.604 8.40852C102.725 8.51152 102.805 8.65454 102.83 8.8118C102.856 8.96905 102.824 9.1302 102.741 9.2662C102.659 9.4022 102.53 9.5041 102.38 9.55353L83.1829 15.9762ZM53.4978 156.75C46.8031 156.753 40.1915 155.264 34.1399 152.391C28.0884 149.519 22.748 145.334 18.5041 140.14C14.2603 134.945 11.2188 128.87 9.59915 122.353C7.97955 115.836 7.82223 109.039 9.13856 102.453C10.4549 95.8679 13.212 89.6577 17.211 84.2711C21.21 78.8844 26.351 74.4556 32.2631 71.3043C38.1752 68.153 44.7109 66.3579 51.3984 66.0484C58.086 65.7389 64.7586 66.9228 70.9347 69.5147L49.8632 109.445C49.5623 110.016 49.3995 110.651 49.3878 111.297C49.3761 111.943 49.5159 112.583 49.796 113.165C50.076 113.747 50.4885 114.255 51.0001 114.648C51.5117 115.04 52.1081 115.307 52.7413 115.426L96.9729 123.75C94.2826 133.242 88.5846 141.597 80.7407 147.551C72.8968 153.505 63.3337 156.734 53.4978 156.75ZM98.5065 115.657L59.7473 108.356L78.1874 73.4252C84.4836 77.5411 89.6584 83.1662 93.2441 89.7921C96.8297 96.418 98.7132 103.836 98.7244 111.375C98.7244 112.819 98.6422 114.263 98.5065 115.657ZM106.861 113.054C106.882 112.493 106.947 111.94 106.947 111.375C106.938 102.335 104.648 93.4438 100.293 85.5296C95.9372 77.6155 89.6566 70.9356 82.0358 66.1116L91.1016 48.9268L110.533 109.833C109.155 110.717 107.918 111.803 106.861 113.054V113.054ZM123.932 130.544L121.124 122.1L113.312 124.707L115.392 130.977C113.823 130.123 112.574 128.778 111.837 127.146C111.1 125.514 110.915 123.685 111.31 121.938C111.704 120.19 112.658 118.62 114.024 117.467C115.391 116.313 117.095 115.639 118.879 115.548C120.662 115.456 122.427 115.952 123.903 116.96C125.38 117.968 126.488 119.432 127.058 121.13C127.629 122.827 127.63 124.666 127.063 126.365C126.496 128.064 125.39 129.53 123.916 130.54L123.932 130.544ZM125.268 108.422C123.364 107.657 121.333 107.26 119.282 107.25C118.969 107.25 118.678 107.325 118.369 107.341L98.601 45.3751H168.427L169.249 47.285L125.268 108.422ZM201.512 156.75C191.474 156.743 181.724 153.386 173.798 147.208C165.871 141.029 160.218 132.381 157.73 122.625C155.241 112.869 156.058 102.559 160.053 93.32C164.047 84.081 170.991 76.4376 179.791 71.5937L197.742 113.025L205.282 109.725L187.336 68.3102C193.555 66.2394 200.148 65.5491 206.659 66.2871C213.17 67.025 219.444 69.1737 225.045 72.5843C230.647 75.9949 235.443 80.586 239.102 86.0398C242.761 91.4937 245.194 97.68 246.235 104.171C247.275 110.661 246.897 117.301 245.128 123.631C243.358 129.961 240.238 135.829 235.985 140.83C231.731 145.831 226.446 149.844 220.493 152.593C214.541 155.342 208.065 156.761 201.512 156.75V156.75Z" fill="#FEC63E"/>
</svg>
