<svg width="210" height="210" viewBox="0 0 210 210" fill="none" xmlns="http://www.w3.org/2000/svg">
<path d="M204.516 96.6329C194.305 78.5189 172.488 70.4516 152.949 77.5652L130.861 29.7109H151.548C154.434 29.7109 156.774 32.0507 156.774 34.9367C156.774 37.8226 154.434 40.1625 151.548 40.1625H149.806C147.882 40.1625 146.322 41.7224 146.322 43.6463C146.322 45.5703 147.882 47.1302 149.806 47.1302H151.548C158.282 47.1302 163.742 41.671 163.742 34.9367C163.742 28.2023 158.282 22.7431 151.548 22.7431H125.419C123.495 22.7431 121.935 24.303 121.935 26.227C121.935 26.7308 122.045 27.229 122.256 27.6867L131.23 47.1302H76.4116L71.6213 36.6786H74.6139C79.5819 36.6886 83.6171 32.6691 83.6271 27.7011C83.6363 23.1011 80.1733 19.2353 75.5999 18.7402L56.4595 16.608C50.9337 16.0058 45.9657 19.9974 45.3638 25.5237C44.7616 31.0495 48.7532 36.0175 54.2795 36.6194C54.6379 36.6586 54.9985 36.6782 55.359 36.6786H63.9572L69.8345 49.5027L56.4739 77.722C34.8691 69.6159 10.7834 80.5588 2.67734 102.164C-5.42875 123.768 5.51407 147.854 27.1188 155.96C48.7236 164.066 72.8093 153.123 80.9154 131.519C82.2693 127.91 83.1172 124.132 83.4355 120.291H91.0756C92.9578 127.734 100.517 132.242 107.96 130.36C115.403 128.478 119.91 120.918 118.028 113.476C117.304 110.612 115.687 108.054 113.41 106.171L136.237 57.9789L146.618 80.4777C126.169 92.0046 118.937 117.926 130.463 138.374C141.99 158.823 167.911 166.056 188.36 154.529C208.809 143.003 216.042 117.082 204.516 96.6329ZM55.3586 29.7104C53.6476 29.7104 52.2597 28.3243 52.258 26.6133C52.2597 24.9075 53.6389 23.5239 55.3447 23.5161C55.4631 23.5161 55.5781 23.5161 55.6931 23.5335L74.8334 25.6622C75.9474 25.7928 76.7448 26.8023 76.6137 27.9162C76.4943 28.9326 75.6373 29.7017 74.6139 29.7104H55.3586ZM59.7727 87.0165C69.1669 92.67 75.3521 102.416 76.4673 113.323H47.3109L59.7727 87.0165ZM41.8064 151.646C22.5654 151.709 6.91676 136.163 6.85318 116.922C6.79004 97.6815 22.3364 82.0324 41.5769 81.9688C45.6343 81.9553 49.6625 82.6508 53.4808 84.0239L38.6709 115.316C37.8474 117.055 38.5895 119.132 40.3283 119.956C40.7904 120.175 41.2951 120.289 41.8064 120.291H76.4673C74.6597 138.083 59.6895 151.625 41.8064 151.646ZM91.0752 113.323H83.4351C82.2845 99.7257 74.5699 87.5452 62.7688 80.6933L73.6245 57.773L95.7575 106.059C93.4638 107.921 91.8234 110.466 91.0752 113.323ZM104.516 123.775C100.668 123.775 97.5482 120.655 97.5482 116.807C97.5482 112.959 100.668 109.839 104.516 109.839C108.364 109.839 111.484 112.959 111.484 116.807C111.484 120.655 108.364 123.775 104.516 123.775ZM107.136 103.14C106.273 102.967 105.396 102.877 104.516 102.872C103.697 102.883 102.882 102.966 102.077 103.119L79.6063 54.0975H130.366L107.136 103.14ZM167.515 151.91C148.201 151.99 132.479 136.398 132.4 117.084C132.348 104.675 138.877 93.1677 149.555 86.8463L164.062 118.274C164.833 120.037 166.887 120.842 168.65 120.071C170.413 119.3 171.218 117.246 170.447 115.484C170.429 115.441 170.409 115.4 170.389 115.359L155.875 83.9133C159.524 82.636 163.36 81.9789 167.226 81.9693C186.539 81.8896 202.261 97.4816 202.341 116.795C202.421 136.109 186.828 151.83 167.515 151.91Z" fill="#FEC63E"/>
<path d="M167.226 158.613H41.8064H0V165.581H209.032V158.613H167.226Z" fill="#FEC63E"/>
<path d="M48.7741 186.484H6.96772C5.04376 186.484 3.48386 188.044 3.48386 189.968C3.48386 191.892 5.04376 193.452 6.96772 193.452H48.7741C50.6981 193.452 52.258 191.892 52.258 189.968C52.258 188.044 50.6981 186.484 48.7741 186.484Z" fill="#FEC63E"/>
<path d="M128.903 186.484H80.1289C78.205 186.484 76.6451 188.044 76.6451 189.968C76.6451 191.892 78.205 193.452 80.1289 193.452H128.903C130.827 193.452 132.387 191.892 132.387 189.968C132.387 188.044 130.827 186.484 128.903 186.484Z" fill="#FEC63E"/>
<path d="M202.064 186.484H160.258C158.334 186.484 156.774 188.044 156.774 189.968C156.774 191.892 158.334 193.452 160.258 193.452H202.064C203.988 193.452 205.548 191.892 205.548 189.968C205.548 188.044 203.988 186.484 202.064 186.484Z" fill="#FEC63E"/>
<path d="M41.8064 137.71C39.7836 137.713 37.7708 137.422 35.8316 136.846C33.9912 136.284 32.0442 137.321 31.4824 139.161C30.9206 141.002 31.9571 142.949 33.7974 143.51C33.8135 143.515 33.8297 143.52 33.8462 143.525C36.4299 144.292 39.1116 144.681 41.8068 144.678C43.7308 144.678 45.2907 143.118 45.2907 141.194C45.2907 139.27 43.7304 137.71 41.8064 137.71Z" fill="#FEC63E"/>
<path d="M27.1741 131.739C23.1468 127.817 20.884 122.428 20.9032 116.807C20.9023 114.784 21.1945 112.771 21.7707 110.832C22.3189 108.987 21.2677 107.047 19.4225 106.498C17.5774 105.95 15.6369 107.001 15.0886 108.846C12.1491 118.755 14.9231 129.478 22.3002 136.717C22.9513 137.354 23.8253 137.71 24.7354 137.71C26.6594 137.71 28.2193 136.15 28.2189 134.226C28.2189 133.291 27.8422 132.394 27.1741 131.739Z" fill="#FEC63E"/>
<path d="M179.175 91.6326C176.655 90.4329 173.967 89.6224 171.204 89.2288C169.298 88.9575 167.533 90.2826 167.262 92.1883C166.991 94.094 168.316 95.859 170.222 96.1303C172.289 96.4229 174.3 97.0278 176.186 97.9245C176.652 98.1435 177.162 98.255 177.677 98.252C179.601 98.2406 181.152 96.672 181.141 94.7476C181.133 93.4198 180.371 92.2118 179.175 91.6326Z" fill="#FEC63E"/>
<path d="M190.108 100.879C188.975 99.3237 186.796 98.981 185.24 100.114C183.73 101.214 183.356 103.31 184.394 104.864C186.836 108.367 188.141 112.537 188.129 116.807C188.13 118.83 187.838 120.842 187.265 122.782C186.717 124.625 187.767 126.563 189.609 127.112C189.931 127.21 190.266 127.26 190.602 127.259C192.143 127.258 193.501 126.245 193.94 124.768C196.36 116.636 194.95 107.845 190.108 100.879Z" fill="#FEC63E"/>
</svg>
