<svg width="240" height="165" viewBox="0 0 240 165" fill="none" xmlns="http://www.w3.org/2000/svg">
<path d="M189.658 57.7502C184.063 57.7623 178.509 58.7746 173.228 60.7449L156.863 20.6251H179.984C181.524 20.6251 183 21.277 184.089 22.4373C185.177 23.5977 185.789 25.1715 185.789 26.8126C185.789 28.4536 185.177 30.0274 184.089 31.1878C183 32.3482 181.524 33.0001 179.984 33.0001H170.31V41.2501H179.984C183.576 41.2501 187.021 39.729 189.561 37.0215C192.101 34.3139 193.528 30.6417 193.528 26.8126C193.528 22.9835 192.101 19.3113 189.561 16.6037C187.021 13.8961 183.576 12.375 179.984 12.375H150.962C150.319 12.3747 149.687 12.545 149.121 12.8706C148.556 13.1962 148.075 13.6667 147.723 14.2399C147.371 14.813 147.158 15.4705 147.104 16.1532C147.05 16.8359 147.156 17.5221 147.413 18.1501L155.153 37.1251H90.3244L85.7853 22.0069L98.8028 17.3787C100.687 16.709 102.286 15.3465 103.315 13.535C104.343 11.7235 104.733 9.5811 104.415 7.4911C104.097 5.4011 103.092 3.49982 101.58 2.12736C100.067 0.754912 98.1461 0.000826344 96.1598 6.68936e-09H67.4315C65.5839 -7.2168e-05 63.7778 0.583902 62.2416 1.67807C60.7053 2.77224 59.508 4.32746 58.8009 6.14705C58.0939 7.96665 57.9089 9.96888 58.2693 11.9005C58.6298 13.8322 59.5195 15.6066 60.826 16.9992L63.0279 19.3463C64.9977 21.4753 67.4305 23.0524 70.1099 23.9376C72.7894 24.8227 75.6325 24.9885 78.3865 24.4201L82.5425 38.2636C82.2311 38.5671 81.9695 38.924 81.7686 39.3196L70.3995 62.2134C61.1376 57.9117 50.8753 56.6823 40.9487 58.6854C31.0221 60.6886 21.8913 65.8314 14.7453 73.4443C7.59925 81.0571 2.76908 90.7872 0.883736 101.368C-1.00161 111.948 0.145238 122.888 4.17493 132.764C8.20463 142.64 14.9305 150.993 23.4766 156.737C32.0228 162.481 41.9932 165.348 52.0898 164.966C62.1863 164.584 71.941 160.971 80.0837 154.596C88.2264 148.221 94.3797 139.38 97.7425 129.224C98.7601 132.295 100.61 134.974 103.058 136.922C105.505 138.87 108.441 140 111.491 140.168L114.398 149.462C114.649 150.267 115.128 150.971 115.769 151.476C116.409 151.981 117.18 152.263 117.977 152.283L131.521 152.625L131.699 144.375L120.864 144.103L119.099 138.468C121.195 137.387 123.031 135.81 124.468 133.856C125.904 131.903 126.903 129.626 127.388 127.199C127.874 124.771 127.832 122.258 127.268 119.85C126.703 117.442 125.63 115.204 124.13 113.306L162.884 56.1002L166.123 64.0367C155.293 70.1846 146.947 80.3439 142.659 92.599C138.37 104.854 138.436 118.358 142.844 130.565C147.251 142.772 155.696 152.838 166.586 158.866C177.475 164.893 190.058 166.466 201.96 163.287C213.862 160.107 224.262 152.396 231.199 141.607C238.135 130.818 241.129 117.696 239.616 104.716C238.103 91.736 232.188 79.7944 222.985 71.1429C213.783 62.4914 201.929 57.7277 189.658 57.7502ZM78.2898 15.9762C76.6023 16.5638 74.7954 16.6437 73.068 16.207C71.3406 15.7703 69.7598 14.834 68.4995 13.5012L66.2977 11.154C66.0772 10.9146 65.9278 10.6112 65.8681 10.2817C65.8083 9.95225 65.841 9.61135 65.962 9.30156C66.0829 8.99177 66.2868 8.72683 66.5481 8.53982C66.8095 8.35281 67.1168 8.25201 67.4315 8.25002H96.1598C96.3093 8.24931 96.454 8.30552 96.568 8.40852C96.682 8.51152 96.7577 8.65454 96.7815 8.8118C96.8053 8.96905 96.7757 9.1302 96.6979 9.2662C96.6201 9.4022 96.4992 9.5041 96.3572 9.55353L78.2898 15.9762ZM50.3509 156.75C44.05 156.753 37.8273 155.264 32.1317 152.391C26.4362 149.519 21.4099 145.334 17.4157 140.14C13.4214 134.945 10.5588 128.87 9.0345 122.353C7.51016 115.836 7.3621 109.039 8.601 102.453C9.8399 95.868 12.4349 89.6577 16.1986 84.2711C19.9623 78.8844 24.801 74.4556 30.3653 71.3043C35.9296 68.153 42.0808 66.3579 48.375 66.0484C54.6691 65.7389 60.9492 66.9228 66.7621 69.5147L46.9301 109.445C46.6469 110.016 46.4936 110.651 46.4826 111.297C46.4716 111.943 46.6032 112.583 46.8668 113.165C47.1304 113.747 47.5186 114.255 48.0001 114.648C48.4816 115.04 49.0429 115.307 49.6388 115.426L91.2686 123.75C88.7365 133.242 83.3737 141.597 75.9912 147.551C68.6087 153.505 59.6082 156.734 50.3509 156.75ZM92.712 115.657L56.2327 108.356L73.5881 73.4252C79.514 77.5411 84.3844 83.1662 87.7592 89.7921C91.1339 96.418 92.9066 103.836 92.9171 111.375C92.9171 112.819 92.8397 114.263 92.712 115.657ZM100.575 113.054C100.594 112.493 100.656 111.94 100.656 111.375C100.647 102.335 98.4927 93.4438 94.3932 85.5296C90.2938 77.6155 84.3827 70.9356 77.2101 66.1116L85.7427 48.9268L104.031 109.833C102.735 110.717 101.57 111.803 100.575 113.054ZM116.642 130.544L113.999 122.1L106.647 124.707L108.605 130.977C107.127 130.123 105.952 128.778 105.258 127.146C104.565 125.514 104.39 123.685 104.762 121.938C105.134 120.19 106.031 118.62 107.317 117.467C108.603 116.313 110.207 115.639 111.886 115.548C113.564 115.456 115.225 115.952 116.615 116.96C118.005 117.968 119.047 119.432 119.584 121.13C120.121 122.827 120.123 124.666 119.589 126.365C119.055 128.064 118.014 129.53 116.626 130.54L116.642 130.544ZM117.9 108.422C116.107 107.657 114.196 107.26 112.265 107.25C111.971 107.25 111.697 107.325 111.406 107.341L92.801 45.3751H158.519L159.293 47.285L117.9 108.422ZM189.658 156.75C180.211 156.743 171.035 153.386 163.574 147.208C156.114 141.029 150.794 132.381 148.452 122.625C146.109 112.869 146.878 102.559 150.638 93.32C154.397 84.081 160.932 76.4376 169.215 71.5937L186.11 113.025L193.207 109.725L176.316 68.3102C182.169 66.2394 188.374 65.5491 194.503 66.2871C200.631 67.025 206.535 69.1737 211.807 72.5843C217.08 75.9949 221.594 80.586 225.037 86.0398C228.481 91.4937 230.771 97.68 231.75 104.171C232.73 110.661 232.374 117.301 230.708 123.631C229.043 129.961 226.107 135.829 222.103 140.83C218.1 145.831 213.125 149.844 207.523 152.593C201.921 155.342 195.826 156.761 189.658 156.75Z" fill="#FEC63E"/>
</svg>
