<svg width="57" height="60" viewBox="0 0 57 60" fill="none" xmlns="http://www.w3.org/2000/svg">
<g clip-path="url(#clip0)">
<path fill-rule="evenodd" clip-rule="evenodd" d="M23.9771 45.597C23.9771 45.82 24.1478 46 24.3594 46H29.8092C30.0207 46 30.1915 45.82 30.1915 45.597V29.874H34.1424C34.3416 29.874 34.5067 29.714 34.5238 29.504L34.9032 24.768C34.9077 24.7125 34.9012 24.6565 34.8841 24.6038C34.867 24.551 34.8397 24.5026 34.804 24.4615C34.7682 24.4205 34.7248 24.3877 34.6764 24.3652C34.628 24.3427 34.5757 24.3311 34.5228 24.331H30.1915V20.97C30.1915 20.182 30.7967 19.543 31.5442 19.543H34.5892C34.8008 19.543 34.9715 19.363 34.9715 19.14V14.403C34.9715 14.2961 34.9312 14.1936 34.8595 14.118C34.7879 14.0425 34.6906 14 34.5892 14H29.4449C27.995 14 26.6045 14.6072 25.5793 15.6879C24.554 16.7687 23.978 18.2346 23.978 19.763V24.331H21.2517C21.1505 24.331 21.0534 24.3733 20.9818 24.4487C20.9101 24.524 20.8697 24.6263 20.8694 24.733V29.471C20.8694 29.694 21.0402 29.874 21.2517 29.874H23.9771V45.597Z" fill="#FEC63E"/>
</g>
<rect x="2.5" y="2.5" width="51.9167" height="55" stroke="#FEC63E" stroke-width="5"/>
<defs>
<clipPath id="clip0">
<rect x="12.3319" y="14" width="30.3556" height="32" fill="white"/>
</clipPath>
</defs>
</svg>
