<svg width="145" height="60" viewBox="0 0 145 60" fill="none" xmlns="http://www.w3.org/2000/svg">
<g clip-path="url(#clip0)">
<path fill-rule="evenodd" clip-rule="evenodd" d="M25.276 45.597C25.276 45.82 25.456 46 25.679 46H31.424C31.647 46 31.827 45.82 31.827 45.597V29.874H35.992C36.202 29.874 36.376 29.714 36.394 29.504L36.794 24.768C36.7987 24.7125 36.7918 24.6565 36.7738 24.6038C36.7558 24.551 36.7271 24.5026 36.6894 24.4615C36.6517 24.4205 36.6059 24.3877 36.5549 24.3652C36.5039 24.3427 36.4487 24.3311 36.393 24.331H31.827V20.97C31.827 20.182 32.465 19.543 33.253 19.543H36.463C36.686 19.543 36.866 19.363 36.866 19.14V14.403C36.866 14.2961 36.8235 14.1936 36.748 14.118C36.6724 14.0425 36.5699 14 36.463 14H31.04C29.5116 14 28.0457 14.6072 26.9649 15.6879C25.8842 16.7687 25.277 18.2346 25.277 19.763V24.331H22.403C22.2963 24.331 22.1939 24.3733 22.1184 24.4487C22.0428 24.524 22.0003 24.6263 22 24.733V29.471C22 29.694 22.18 29.874 22.403 29.874H25.276V45.597Z" fill="#FEC63E"/>
</g>
<rect x="2.5" y="2.5" width="55" height="55" stroke="#FEC63E" stroke-width="5"/>
<path d="M127.981 36.361C127.981 37.2304 127.81 38.0912 127.477 38.8944C127.144 39.6975 126.657 40.4273 126.042 41.042C125.427 41.6568 124.698 42.1444 123.894 42.4771C123.091 42.8098 122.23 42.981 121.361 42.981H108.639C106.883 42.981 105.199 42.2835 103.958 41.042C102.716 39.8006 102.019 38.1167 102.019 36.361V23.638C102.019 21.8823 102.716 20.1984 103.958 18.957C105.199 17.7155 106.883 17.018 108.639 17.018H121.361C123.117 17.018 124.801 17.7155 126.042 18.957C127.284 20.1984 127.981 21.8823 127.981 23.638V36.361ZM131 23.638C131 18.315 126.684 14 121.36 14H108.64C103.315 14 99 18.315 99 23.638V36.361C99 41.684 103.316 46 108.64 46H121.36C123.917 46 126.369 44.9844 128.177 43.1765C129.984 41.3687 131 38.9167 131 36.36V23.638ZM115.054 35.268C113.712 35.2664 112.425 34.7326 111.476 33.7836C110.527 32.8347 109.994 31.548 109.992 30.206C109.994 28.864 110.527 27.5773 111.476 26.6284C112.425 25.6794 113.712 25.1456 115.054 25.144C116.396 25.1453 117.683 25.6791 118.632 26.6281C119.581 27.5771 120.115 28.8639 120.116 30.206C120.115 31.5481 119.581 32.8349 118.632 33.7839C117.683 34.7329 116.396 35.2667 115.054 35.268ZM115.054 22.304C110.697 22.304 107.152 25.849 107.152 30.206C107.152 34.564 110.697 38.108 115.054 38.108C119.412 38.108 122.957 34.564 122.957 30.206C122.957 25.849 119.412 22.304 115.054 22.304ZM123.418 19.891C123.171 19.891 122.926 19.9397 122.698 20.0342C122.47 20.1288 122.262 20.2674 122.088 20.4421C121.913 20.6168 121.774 20.8242 121.68 21.0525C121.585 21.2808 121.536 21.5254 121.536 21.7725C121.536 22.0196 121.585 22.2642 121.68 22.4925C121.774 22.7208 121.913 22.9282 122.088 23.1029C122.262 23.2776 122.47 23.4162 122.698 23.5108C122.926 23.6053 123.171 23.654 123.418 23.654C123.917 23.654 124.396 23.4558 124.748 23.1029C125.101 22.7501 125.299 22.2715 125.299 21.7725C125.299 21.2735 125.101 20.7949 124.748 20.4421C124.396 20.0892 123.917 19.891 123.418 19.891Z" fill="#FEC63E"/>
<rect x="87.5" y="2.5" width="55" height="55" stroke="#FEC63E" stroke-width="5"/>
<defs>
<clipPath id="clip0">
<rect x="13" y="14" width="32" height="32" fill="white"/>
</clipPath>
</defs>
</svg>
