<svg width="60" height="60" viewBox="0 0 60 60" fill="none" xmlns="http://www.w3.org/2000/svg">
<path d="M42.981 36.361C42.981 37.2304 42.8098 38.0912 42.4771 38.8944C42.1444 39.6975 41.6568 40.4273 41.042 41.042C40.4273 41.6568 39.6975 42.1444 38.8944 42.4771C38.0912 42.8098 37.2304 42.981 36.361 42.981H23.639C21.8833 42.981 20.1994 42.2835 18.958 41.042C17.7165 39.8006 17.019 38.1167 17.019 36.361V23.638C17.019 21.8823 17.7165 20.1984 18.958 18.957C20.1994 17.7155 21.8833 17.018 23.639 17.018H36.361C38.1167 17.018 39.8006 17.7155 41.042 18.957C42.2835 20.1984 42.981 21.8823 42.981 23.638V36.361ZM46 23.638C46 18.315 41.684 14 36.36 14H23.64C18.315 14 14 18.315 14 23.638V36.361C14 41.684 18.316 46 23.64 46H36.36C38.9167 46 41.3687 44.9844 43.1765 43.1765C44.9844 41.3687 46 38.9167 46 36.36V23.638ZM30.054 35.268C28.712 35.2664 27.4253 34.7326 26.4764 33.7836C25.5274 32.8347 24.9936 31.548 24.992 30.206C24.9936 28.864 25.5274 27.5773 26.4764 26.6284C27.4253 25.6794 28.712 25.1456 30.054 25.144C31.3961 25.1453 32.6829 25.6791 33.6319 26.6281C34.5809 27.5771 35.1147 28.8639 35.116 30.206C35.1147 31.5481 34.5809 32.8349 33.6319 33.7839C32.6829 34.7329 31.3961 35.2667 30.054 35.268ZM30.054 22.304C25.697 22.304 22.152 25.849 22.152 30.206C22.152 34.564 25.697 38.108 30.054 38.108C34.412 38.108 37.957 34.564 37.957 30.206C37.957 25.849 34.412 22.304 30.054 22.304ZM38.418 19.891C38.1709 19.891 37.9263 19.9397 37.698 20.0342C37.4697 20.1288 37.2623 20.2674 37.0876 20.4421C36.9129 20.6168 36.7743 20.8242 36.6797 21.0525C36.5852 21.2808 36.5365 21.5254 36.5365 21.7725C36.5365 22.0196 36.5852 22.2642 36.6797 22.4925C36.7743 22.7208 36.9129 22.9282 37.0876 23.1029C37.2623 23.2776 37.4697 23.4162 37.698 23.5108C37.9263 23.6053 38.1709 23.654 38.418 23.654C38.917 23.654 39.3956 23.4558 39.7484 23.1029C40.1013 22.7501 40.2995 22.2715 40.2995 21.7725C40.2995 21.2735 40.1013 20.7949 39.7484 20.4421C39.3956 20.0892 38.917 19.891 38.418 19.891Z" fill="#FEC63E"/>
<rect x="2.5" y="2.5" width="55" height="55" stroke="#FEC63E" stroke-width="5"/>
</svg>
