<svg width="95" height="62" viewBox="0 0 95 62" fill="none" xmlns="http://www.w3.org/2000/svg">
<g clip-path="url(#clip0)">
<path d="M8.65607 9.56201C10.1387 9.50001 13.7549 9.37501 15.5933 8.93701C15.5335 9.75001 15.4149 12.25 15.4149 17V19.125C17.075 17.687 18.4391 16.937 20.0992 16.937C22.115 16.937 23.4781 17.875 24.3679 19.25C25.1382 20.563 25.5537 22.375 25.5537 24.313C25.5537 30.125 22.945 33.438 17.6679 33.438C16.245 33.438 14.5251 32.938 13.5177 32.375C12.8062 32.625 11.8576 33.125 10.909 33.438L10.6121 33.25C10.6719 31.562 10.6719 28.375 10.6719 24.062V16.062C10.6719 14.062 10.6121 12.687 10.5533 11.5C10.4935 10.687 10.3161 10.562 8.53749 10.562L8.65607 9.56201ZM17.6679 32.25C19.6837 32.25 20.6323 29.687 20.6323 24.937C20.6323 23 20.3354 21.375 19.8022 20.312C19.3279 19.5 18.7351 19.062 17.905 19.062C17.0152 19.062 16.245 19.625 15.7109 20.437C15.4149 20.875 15.2963 21.25 15.2963 26.187C15.2963 30.25 15.4747 30.375 15.7118 30.875C16.1264 31.813 16.8976 32.25 17.6679 32.25ZM35.9286 33.063C34.6831 33.063 33.4385 32.937 31.4815 32.937C29.4069 32.937 28.3986 33.063 27.3911 33.063V32C29.0512 31.937 29.2884 31.625 29.3481 30.937C29.4069 30.187 29.4667 29 29.4667 27.062V23.062C29.4667 21.437 29.4667 20.125 29.4069 19.562C29.3472 19 29.11 18.812 27.5685 18.875V17.812C29.6441 17.625 32.1342 17.562 34.15 17.125C34.0902 17.938 34.0314 19.438 34.0314 22.875V27.188C34.0314 29.188 34.0912 30.063 34.15 30.938C34.2097 31.813 34.4469 31.938 35.9286 32.125V33.063ZM31.4815 9.87501C33.024 9.87501 33.9128 10.813 33.9128 12.5C33.9128 13.938 32.9045 14.938 31.363 14.938C29.9998 14.938 29.0512 13.938 29.0512 12.5C29.0512 11 29.9998 9.87501 31.4825 9.87501H31.4815ZM37.4701 9.56201C39.7828 9.50001 42.5101 9.25001 43.933 8.93701C43.8528 11.5195 43.813 14.1032 43.8135 16.687V24.5C44.9404 24.187 47.3708 21.062 48.3194 19.25C48.4977 18.875 48.4977 18.687 48.0234 18.687L46.7191 18.562V17.5C48.9132 17.563 51.1662 17.437 53.4191 17.312V18.375C51.759 18.563 51.1064 18.688 50.4538 19.25C49.5649 20.063 48.5565 21.188 47.6079 22.375C48.3194 23.938 51.2847 29.688 52.4107 31.25C52.7665 31.813 53.3005 32 53.8934 32L54.7225 32.063L54.6637 33.125C51.8179 33.125 49.3866 33.25 48.0822 33.5C47.3708 31.75 45.2364 27.5 44.5847 26.187C44.229 25.5 44.0506 25.25 43.8135 25.312C43.8135 27.875 43.7547 29.125 43.8732 30.937C43.933 31.75 44.1104 32 45.7117 32.062V33.125C44.5847 33.125 43.3989 33 41.4429 33C39.1302 33 38.1228 33.125 37.233 33.125V32.062C38.7745 32 39.0116 31.688 39.0714 31.062C39.1302 30.312 39.189 28.687 39.189 25.437V17.375C39.189 14.812 39.189 12.875 39.1302 11.25C39.1302 10.875 38.893 10.687 38.4187 10.687H37.4104L37.4701 9.56201ZM23.1821 48.5C22.1738 51.875 20.2177 53.5 16.9564 53.5C14.1694 53.5 12.3907 52.687 11.1462 50.937C10.1976 49.625 9.72325 47.687 9.72325 45.5C9.72325 40.687 12.5103 37 17.6091 37C20.692 37 22.945 38.5 22.945 40.938C22.945 42.625 21.6407 43.312 20.5735 43.312C20.2177 43.312 19.6837 43.188 19.3877 43C19.032 42.75 18.8536 42.375 18.9722 41.875C19.032 41.375 19.1505 41.062 19.1505 40.562C19.1505 39 18.6165 38.25 17.4905 38.25C15.6521 38.25 14.7035 41.063 14.7035 44.938C14.7035 46.5 14.8818 48.25 15.4149 49.312C16.0078 50.75 16.9564 51.562 18.3793 51.562C20.158 51.562 21.2849 50.5 22.115 48.062L23.1821 48.5ZM26.5611 43.938C26.5611 41.938 26.5013 40.375 26.3828 39.562C26.3239 39.125 26.0868 38.938 25.6713 38.938H24.6041V37.875C26.3828 37.812 28.814 37.687 30.5329 37.125L30.7113 37.25C30.8298 38 30.9484 39.813 31.0082 40.938H31.1258C31.898 38.75 32.9642 37 35.1584 37C36.4039 37 37.3525 38.063 37.3525 39.5C37.3525 41.563 35.8698 42.188 35.2769 42.188C34.685 42.188 34.2695 42 34.0912 41.562C33.7952 40.875 33.6169 40.5 33.0249 40.5C32.3723 40.5 32.0166 41.125 31.602 42.125C31.4237 42.688 31.3051 43.313 31.3051 44.375C31.3051 47.938 31.3051 49.938 31.3649 50.813C31.4237 51.687 31.7196 51.937 34.0912 52L34.0324 53.063C32.3723 53 30.8896 52.937 29.1707 52.937C27.3921 52.937 26.0877 53 24.6051 53.063L24.7825 52C26.2054 51.937 26.5611 51.75 26.5611 51.125C26.6209 50.25 26.6797 48.562 26.6797 46.625V43.937H26.5611V43.938ZM46.6603 41.063C46.6603 39.187 46.0664 38.187 44.8807 38.187C43.5175 38.187 42.8658 39 42.8658 40.5C42.8658 40.938 42.9246 41.313 42.9834 41.688C43.0432 42.062 42.9246 42.438 42.6287 42.625C42.2132 42.938 41.5017 43.188 40.9686 43.188C39.8416 43.188 38.893 42.624 38.893 41.25C38.893 39.25 41.6801 37 45.5931 37C48.7937 37 50.2166 38.375 50.7507 39.25C51.0476 39.75 51.225 40.313 51.225 40.938V50.125C51.225 51.188 51.5219 51.438 51.8776 51.438C52.3519 51.438 52.885 50.625 53.1222 49.25L54.1306 49.75C53.5965 52.438 52.055 53.563 49.9206 53.563C48.0822 53.563 47.0748 52.75 46.7779 51.125C45.355 52.625 43.8732 53.563 42.3318 53.563C39.8416 53.563 38.1816 51.813 38.1816 48.937C38.1816 47.187 38.893 46.187 40.1386 45.625C42.1534 44.687 45.1776 43.75 46.6593 42.625V41.062L46.6603 41.063ZM42.9246 48C42.9246 49.375 43.4587 50.875 44.763 50.875C45.7117 50.875 46.1262 50.25 46.4231 49.625C46.5407 49.312 46.6005 48.75 46.6005 48.125V43.875C45.9479 44.313 44.9404 44.813 44.1692 45.313C43.4578 45.813 42.9246 46.437 42.9246 48ZM54.6637 37.563L56.5609 37.625V36.625C56.6207 34 57.2136 32.062 58.5179 30.687C59.7037 29.437 61.1266 28.812 62.8455 28.812C65.2768 28.812 66.5811 30.062 66.5811 31.687C66.5811 32.875 65.6325 33.687 64.3272 33.687C63.6157 33.687 63.1414 33.187 63.1414 32.437C63.1414 31.125 62.964 30.063 62.0752 30.063C61.4814 30.063 61.1266 30.625 61.007 31.688C60.8894 32.688 61.0668 34.563 61.1854 37.5H64.091L63.9126 38.75L61.1854 38.938C61.1256 40.125 61.1256 42.188 61.1256 44.625C61.1256 46.938 61.1256 49 61.1854 50.625C61.2452 51.438 61.3637 51.75 62.0154 51.813C62.6083 51.875 63.0826 51.937 63.6167 51.937L63.4962 53C62.3702 53 60.5916 52.875 59.0501 52.875C57.4488 52.875 55.5516 53 54.4844 53L54.5442 51.937C56.0857 51.875 56.3228 51.687 56.3826 51C56.5002 49.937 56.5002 48.312 56.5002 46.125V38.875L54.4854 38.75L54.6627 37.562L54.6637 37.563Z" fill="black"/>
<path d="M75 37.563L74.8805 38.75L71.2644 39C71.2644 40.313 71.2046 42.25 71.2046 44.875C71.2046 47.625 71.2046 49.5 71.3242 50.625C71.383 51.438 71.6789 51.813 72.2728 51.813C73.5173 51.813 74.2876 50.375 74.5845 49.063H75.0588L75.4743 50.5C74.7629 52.313 72.9833 53.563 70.3746 53.563C68.9517 53.563 67.7071 53.063 67.1142 52.313C66.6987 51.75 66.5213 51.063 66.5213 50.063C66.5213 47.5 66.6399 41.75 66.6399 39L64.7427 38.812L64.8613 37.625H66.6399C66.6997 36.437 66.6997 35.062 66.6997 33.812C68.7743 33.25 70.3148 32.563 71.1458 32L71.5015 32.063C71.3979 33.9151 71.3384 35.7697 71.3232 37.625H75V37.562V37.563Z" fill="black"/>
<path d="M90.118 5V57H4.74305V5H90.118ZM94.8611 0H0V62H94.8611V0Z" fill="black"/>
</g>
<defs>
<clipPath id="clip0">
<rect width="94.8611" height="62" fill="white"/>
</clipPath>
</defs>
</svg>
