<svg width="135" height="60" viewBox="0 0 135 60" fill="none" xmlns="http://www.w3.org/2000/svg">
<g clip-path="url(#clip0)">
<path fill-rule="evenodd" clip-rule="evenodd" d="M23.9771 45.597C23.9771 45.82 24.1478 46 24.3594 46H29.8092C30.0207 46 30.1915 45.82 30.1915 45.597V29.874H34.1424C34.3416 29.874 34.5067 29.714 34.5238 29.504L34.9032 24.768C34.9077 24.7125 34.9012 24.6565 34.8841 24.6038C34.867 24.551 34.8397 24.5026 34.804 24.4615C34.7682 24.4205 34.7248 24.3877 34.6764 24.3652C34.628 24.3427 34.5757 24.3311 34.5228 24.331H30.1915V20.97C30.1915 20.182 30.7967 19.543 31.5442 19.543H34.5892C34.8008 19.543 34.9715 19.363 34.9715 19.14V14.403C34.9715 14.2961 34.9312 14.1936 34.8595 14.118C34.7879 14.0425 34.6906 14 34.5892 14H29.4449C27.995 14 26.6045 14.6072 25.5793 15.6879C24.554 16.7687 23.978 18.2346 23.978 19.763V24.331H21.2517C21.1505 24.331 21.0534 24.3733 20.9818 24.4487C20.9101 24.524 20.8697 24.6263 20.8694 24.733V29.471C20.8694 29.694 21.0402 29.874 21.2517 29.874H23.9771V45.597Z" fill="#FEC63E"/>
</g>
<rect x="2.5" y="2.5" width="51.9167" height="55" stroke="#FEC63E" stroke-width="5"/>
<path d="M118.689 36.361C118.689 37.2304 118.526 38.0912 118.211 38.8944C117.895 39.6975 117.433 40.4273 116.85 41.042C116.266 41.6568 115.574 42.1444 114.812 42.4771C114.05 42.8098 113.234 42.981 112.409 42.981H100.341C98.6753 42.981 97.078 42.2835 95.9003 41.042C94.7226 39.8006 94.061 38.1167 94.061 36.361V23.638C94.061 21.8823 94.7226 20.1984 95.9003 18.957C97.078 17.7155 98.6753 17.018 100.341 17.018H112.409C114.075 17.018 115.672 17.7155 116.85 18.957C118.027 20.1984 118.689 21.8823 118.689 23.638V36.361ZM121.553 23.638C121.553 18.315 117.458 14 112.408 14H100.342C95.2904 14 91.1971 18.315 91.1971 23.638V36.361C91.1971 41.684 95.2913 46 100.342 46H112.408C114.833 46 117.159 44.9844 118.874 43.1765C120.589 41.3687 121.553 38.9167 121.553 36.36V23.638ZM106.426 35.268C105.153 35.2664 103.933 34.7326 103.032 33.7836C102.132 32.8347 101.626 31.548 101.624 30.206C101.626 28.864 102.132 27.5773 103.032 26.6284C103.933 25.6794 105.153 25.1456 106.426 25.144C107.699 25.1453 108.92 25.6791 109.82 26.6281C110.72 27.5771 111.227 28.8639 111.228 30.206C111.227 31.5481 110.72 32.8349 109.82 33.7839C108.92 34.7329 107.699 35.2667 106.426 35.268ZM106.426 22.304C102.293 22.304 98.9302 25.849 98.9302 30.206C98.9302 34.564 102.293 38.108 106.426 38.108C110.56 38.108 113.923 34.564 113.923 30.206C113.923 25.849 110.56 22.304 106.426 22.304ZM114.36 19.891C114.126 19.891 113.894 19.9397 113.677 20.0342C113.461 20.1288 113.264 20.2674 113.098 20.4421C112.933 20.6168 112.801 20.8242 112.711 21.0525C112.622 21.2808 112.575 21.5254 112.575 21.7725C112.575 22.0196 112.622 22.2642 112.711 22.4925C112.801 22.7208 112.933 22.9282 113.098 23.1029C113.264 23.2776 113.461 23.4162 113.677 23.5108C113.894 23.6053 114.126 23.654 114.36 23.654C114.834 23.654 115.288 23.4558 115.622 23.1029C115.957 22.7501 116.145 22.2715 116.145 21.7725C116.145 21.2735 115.957 20.7949 115.622 20.4421C115.288 20.0892 114.834 19.891 114.36 19.891Z" fill="#FEC63E"/>
<rect x="80.4167" y="2.5" width="51.9166" height="55" stroke="#FEC63E" stroke-width="5"/>
<defs>
<clipPath id="clip0">
<rect x="12.3319" y="14" width="30.3556" height="32" fill="white"/>
</clipPath>
</defs>
</svg>
